<?xml version="1.0" encoding="UTF-8" standalone="no"?>
<!DOCTYPE svg PUBLIC "-//W3C//DTD SVG 1.1//EN" "http://www.w3.org/Graphics/SVG/1.1/DTD/svg11.dtd">
<svg width="100%" height="100%" viewBox="0 0 800 800" version="1.1" xmlns="http://www.w3.org/2000/svg" xmlns:xlink="http://www.w3.org/1999/xlink" xml:space="preserve" xmlns:serif="http://www.serif.com/" style="fill-rule:evenodd;clip-rule:evenodd;stroke-linejoin:round;stroke-miterlimit:2;">
    <g transform="matrix(1.5625,0,0,1.5625,0,0)">
        <path d="M329.368,237.908L371.918,198.003C397.155,174.342 411.478,141.302 411.478,106.711L411.478,49.156C411.487,35.642 405.94,23.238 397.076,14.402C388.24,5.529 375.828,-0.009 362.314,0L149.677,0C136.163,-0.009 123.759,5.529 114.923,14.401C106.051,23.238 100.513,35.641 100.521,49.155L100.521,106.709C100.521,141.3 114.836,174.341 140.073,198.001L182.623,237.889C184.975,240.094 186.301,243.161 186.301,246.382L186.301,265.616C186.301,268.837 184.975,271.895 182.631,274.091L140.073,313.996C114.836,337.649 100.521,370.698 100.521,405.288L100.521,462.842C100.512,476.356 106.05,488.76 114.923,497.597C123.759,506.468 136.163,512.006 149.677,511.998L362.313,511.998C375.827,512.006 388.239,506.468 397.076,497.597C405.939,488.759 411.486,476.356 411.478,462.842L411.478,405.288C411.478,370.698 397.154,337.648 371.918,313.996L329.368,274.1C327.024,271.895 325.69,268.837 325.69,265.616L325.69,246.382C325.69,243.162 327.025,240.095 329.368,237.908ZM373.942,462.844C373.933,466.117 372.676,468.899 370.539,471.062C368.377,473.197 365.587,474.464 362.313,474.472L149.677,474.472C146.404,474.463 143.622,473.197 141.452,471.062C139.324,468.899 138.058,466.117 138.05,462.844L138.05,405.29C138.05,381.078 148.076,357.934 165.741,341.38L208.291,301.474C218.205,292.189 223.829,279.2 223.829,265.617L223.829,246.383C223.829,232.791 218.205,219.803 208.282,210.517L165.741,170.621C148.075,154.066 138.05,130.931 138.05,106.711L138.05,49.156C138.058,45.883 139.324,43.101 141.452,40.93C143.622,38.803 146.404,37.536 149.677,37.528L362.313,37.528C365.586,37.537 368.377,38.803 370.539,40.93C372.675,43.101 373.933,45.882 373.942,49.156L373.942,106.71C373.942,130.93 363.916,154.065 346.259,170.62L303.709,210.516C293.787,219.802 288.162,232.79 288.162,246.382L288.162,265.616C288.162,279.199 293.787,292.188 303.709,301.49L346.259,341.37C363.917,357.933 373.942,381.077 373.942,405.288L373.942,462.844Z" style="fill:white;fill-rule:nonzero;"/>
        <path d="M256,248.674C266.017,248.674 274.131,240.552 274.131,230.535C277.163,218.484 283.528,207.374 292.709,198.778L335.251,158.89C348.843,146.151 356.853,128.442 357.697,109.906L154.302,109.906C155.146,128.442 163.156,146.151 176.74,158.89L219.281,198.778C228.471,207.374 234.828,218.484 237.86,230.535C237.861,240.552 245.983,248.674 256,248.674Z" style="fill:white;fill-rule:nonzero;"/>
        <path d="M256,267.796C245.983,267.796 237.861,275.918 237.861,285.935C237.861,295.944 245.983,304.066 256,304.066C266.017,304.066 274.131,295.944 274.131,285.935C274.131,275.918 266.017,267.796 256,267.796Z" style="fill:white;fill-rule:nonzero;"/>
        <path d="M256,332.137C245.983,332.137 237.861,340.259 237.861,350.277C237.861,360.286 245.983,368.408 256,368.408C266.017,368.408 274.131,360.286 274.131,350.277C274.131,340.259 266.017,332.137 256,332.137Z" style="fill:white;fill-rule:nonzero;"/>
        <path d="M239.876,389.742L173.338,456.28L338.653,456.28L272.116,389.742C263.21,380.845 248.782,380.845 239.876,389.742Z" style="fill:white;fill-rule:nonzero;"/>
    </g>
</svg>
